<?xml version="1.0" standalone="no"?>
<!DOCTYPE svg PUBLIC "-//W3C//DTD SVG 20010904//EN"
 "http://www.w3.org/TR/2001/REC-SVG-20010904/DTD/svg10.dtd">
<svg version="1.0" xmlns="http://www.w3.org/2000/svg"
 width="311.000000pt" height="311.000000pt" viewBox="0 0 311.000000 311.000000"
 preserveAspectRatio="xMidYMid meet">
<metadata>
Created by potrace 1.11, written by Peter Selinger 2001-2013
</metadata>
<g transform="translate(0.000000,311.000000) scale(0.100000,-0.100000)"
fill="#000000" stroke="none">
<path d="M1510 2309 c-148 -12 -319 -38 -359 -55 -50 -21 -29 -35 73 -47 84
-11 86 -11 86 -38 0 -23 -6 -29 -37 -39 -52 -17 -101 -47 -146 -89 -37 -34
-39 -35 -49 -16 -26 46 -102 114 -151 136 -42 19 -70 23 -147 24 -88 0 -100
-3 -162 -33 -39 -19 -81 -49 -101 -72 -19 -22 -37 -40 -40 -40 -4 0 -7 32 -7
70 l0 70 -190 0 -190 0 0 -555 0 -555 205 0 205 0 0 363 c0 325 2 366 18 397
17 35 64 66 82 55 5 -3 1 -25 -11 -52 -15 -35 -17 -49 -8 -60 9 -10 9 -23 0
-52 -14 -49 -14 -48 9 -54 19 -5 19 -6 -4 -63 -22 -55 -23 -67 -16 -164 9
-128 28 -178 88 -230 l45 -40 -40 0 c-32 0 -42 -4 -46 -20 -3 -14 -14 -20 -31
-20 -21 0 -26 -5 -26 -25 l0 -25 205 -2 c113 -1 229 -2 258 -3 l52 0 5 410 5
410 65 32 c36 18 86 36 112 39 l48 7 2 -449 3 -449 205 0 205 0 3 548 2 547
110 0 110 0 2 -547 3 -548 203 -3 c187 -2 202 -1 203 15 0 10 0 191 -1 403 0
212 2 449 6 528 l7 143 101 -3 101 -3 3 -542 2 -543 205 0 205 0 0 545 0 544
45 20 c41 18 45 23 45 55 0 51 -27 64 -150 76 -88 8 -106 8 -120 -5 -23 -21
-143 -21 -160 0 -11 13 -69 15 -410 15 -341 0 -399 -2 -410 -15 -9 -11 -32
-15 -81 -15 -47 0 -72 5 -83 15 -8 8 -23 14 -33 14 -10 -1 -65 -6 -123 -10z
m-65 -219 c0 -33 -2 -35 -37 -38 l-38 -3 0 41 0 41 38 -3 c35 -3 37 -5 37 -38z
m113 3 c-3 -36 -5 -38 -38 -38 -33 0 -35 2 -38 38 l-3 37 41 0 41 0 -3 -37z
m118 22 c4 -8 3 -26 0 -40 -5 -21 -12 -25 -41 -25 -34 0 -35 1 -35 40 0 39 1
40 35 40 23 0 38 -6 41 -15z m402 -22 c-3 -36 -5 -38 -38 -38 -33 0 -35 2 -38
38 l-3 37 41 0 41 0 -3 -37z m110 0 c-3 -36 -5 -38 -38 -38 -29 0 -36 4 -38
23 -6 39 5 52 43 52 36 0 36 -1 33 -37z m630 0 l-3 -38 -92 -3 -93 -3 0 41 0
40 96 0 95 0 -3 -37z m-1142 -98 c12 -50 3 -55 -101 -55 l-95 0 0 33 c0 19 3
37 7 40 3 4 46 7 94 7 86 0 89 -1 95 -25z m402 -17 l3 -38 -40 0 c-40 0 -41 1
-41 33 0 42 7 49 45 45 27 -3 30 -7 33 -40z m112 1 l0 -40 -37 3 c-31 2 -39 7
-41 26 -6 39 5 52 43 52 34 0 35 -1 35 -41z m746 16 c10 -40 -1 -55 -41 -55
-34 0 -35 1 -35 40 0 39 1 40 35 40 29 0 36 -4 41 -25z m-1491 -135 c0 -33 -2
-35 -37 -38 l-38 -3 0 41 0 41 38 -3 c35 -3 37 -5 37 -38z m113 3 c-3 -36 -5
-38 -38 -38 -33 0 -35 2 -38 38 l-3 37 41 0 41 0 -3 -37z m632 -4 l0 -40 -37
3 c-31 2 -39 7 -41 26 -6 39 5 52 43 52 34 0 35 -1 35 -41z m118 4 c-3 -36 -5
-38 -38 -38 -33 0 -35 2 -38 38 l-3 37 41 0 41 0 -3 -37z m510 0 c-3 -36 -5
-38 -38 -38 -33 0 -35 2 -38 38 l-3 37 41 0 41 0 -3 -37z m118 22 c4 -8 3 -26
0 -40 -5 -21 -12 -25 -41 -25 -34 0 -35 1 -35 40 0 39 1 40 35 40 23 0 38 -6
41 -15z m-1490 -120 c10 -40 -1 -55 -41 -55 -34 0 -35 1 -35 40 0 39 1 40 35
40 29 0 36 -4 41 -25z m230 0 c10 -40 -1 -55 -41 -55 -34 0 -35 1 -35 40 0 39
1 40 35 40 29 0 36 -4 41 -25z m632 -18 l3 -38 -98 3 c-94 3 -98 4 -101 26 -7
49 1 53 100 50 l93 -3 3 -38z m397 3 c0 -33 -2 -35 -37 -38 l-38 -3 0 41 0 41
38 -3 c35 -3 37 -5 37 -38z m113 -2 l3 -38 -40 0 c-40 0 -41 1 -41 33 0 42 7
49 45 45 27 -3 30 -7 33 -40z m-1258 -119 l0 -40 -37 3 c-36 3 -38 5 -41 41
l-3 37 40 0 41 0 0 -41z m116 26 c4 -8 3 -26 0 -40 -5 -21 -12 -25 -41 -25
-34 0 -35 1 -35 40 0 39 1 40 35 40 23 0 38 -6 41 -15z m404 -26 l0 -40 -37 3
c-31 2 -39 7 -41 26 -6 39 5 52 43 52 34 0 35 -1 35 -41z m228 4 c-3 -36 -5
-38 -40 -41 l-38 -3 0 40 0 41 41 0 40 0 -3 -37z m510 0 c-3 -36 -5 -38 -38
-38 -33 0 -35 2 -38 38 l-3 37 41 0 41 0 -3 -37z m117 -3 c0 -33 -2 -35 -37
-38 l-38 -3 0 41 0 41 38 -3 c35 -3 37 -5 37 -38z m-1377 -112 l3 -38 -95 0
-96 0 0 40 0 41 93 -3 92 -3 3 -37z m118 17 c10 -40 -1 -55 -41 -55 -34 0 -35
1 -35 40 0 39 1 40 35 40 29 0 36 -4 41 -25z m402 -17 l3 -38 -40 0 c-40 0
-41 1 -41 33 0 42 7 49 45 45 27 -3 30 -7 33 -40z m112 1 l0 -40 -37 3 c-31 2
-39 7 -41 26 -6 39 5 52 43 52 34 0 35 -1 35 -41z m118 -1 l3 -38 -40 0 c-40
0 -41 1 -41 33 0 42 7 49 45 45 27 -3 30 -7 33 -40z m398 17 c10 -40 -1 -55
-41 -55 -34 0 -35 1 -35 40 0 39 1 40 35 40 29 0 36 -4 41 -25z m229 -15 l0
-35 -97 -3 -98 -3 0 34 c0 19 3 37 7 41 4 4 48 5 98 4 l90 -3 0 -35z m-1259
-95 c4 -8 3 -26 0 -40 -5 -21 -12 -25 -41 -25 -34 0 -35 1 -35 40 0 39 1 40
35 40 23 0 38 -6 41 -15z m1030 0 c4 -8 3 -26 0 -40 -5 -21 -12 -25 -41 -25
-34 0 -35 1 -35 40 0 39 1 40 35 40 23 0 38 -6 41 -15z m-1148 -137 l3 -38
-40 0 c-40 0 -41 1 -41 33 0 42 7 49 45 45 27 -3 30 -7 33 -40z m117 11 c8
-37 0 -47 -40 -51 -29 -3 -30 -1 -33 40 -3 42 -3 42 32 42 30 0 35 -4 41 -31z
m1143 -10 c3 -31 0 -37 -20 -41 -44 -7 -58 1 -58 36 0 41 7 48 45 44 27 -3 30
-7 33 -39z"/>
<path d="M453 968 c-67 -18 -89 -107 -39 -157 20 -20 36 -26 70 -26 50 0 82
20 65 41 -8 10 -16 11 -29 4 -71 -38 -128 60 -58 100 23 12 31 13 49 2 16 -10
24 -11 35 -1 29 24 -39 51 -93 37z"/>
<path d="M1740 973 c-45 -17 -66 -68 -37 -91 6 -5 31 -15 55 -22 25 -6 42 -16
39 -23 -5 -16 -51 -21 -76 -8 -15 8 -20 7 -25 -6 -9 -23 5 -34 50 -39 57 -7
89 13 89 56 0 32 -4 36 -45 51 -59 22 -60 45 -2 42 30 -1 42 2 42 12 0 8 -3
16 -7 18 -16 9 -68 15 -83 10z"/>
<path d="M2254 970 c-12 -5 -25 -14 -29 -20 -11 -18 16 -30 38 -19 10 6 25 8
33 5 26 -10 15 -38 -31 -79 -63 -57 -60 -67 25 -67 56 0 70 3 70 15 0 11 -11
15 -36 15 l-36 0 36 40 c20 22 36 48 36 58 0 39 -64 70 -106 52z"/>
<path d="M2434 970 c-71 -28 -72 -152 -2 -181 59 -24 115 30 105 103 -8 62
-55 97 -103 78z m45 -44 c7 -8 11 -34 9 -58 -2 -36 -7 -44 -25 -46 -17 -3 -26
4 -34 24 -21 57 18 119 50 80z"/>
<path d="M2593 973 c-12 -2 -27 -11 -34 -19 -18 -22 7 -36 38 -21 19 8 27 7
40 -5 14 -15 11 -20 -31 -66 -25 -27 -46 -54 -46 -61 0 -7 24 -11 70 -11 56 0
70 3 70 15 0 11 -11 15 -42 15 l-42 0 37 38 c38 39 48 80 24 100 -16 14 -56
21 -84 15z"/>
<path d="M2762 970 c-56 -23 -66 -129 -15 -170 34 -27 69 -25 98 5 20 19 25
34 25 72 -1 51 -12 73 -47 91 -25 14 -30 14 -61 2z m62 -61 c11 -32 1 -78 -19
-86 -25 -9 -45 17 -45 56 0 62 45 83 64 30z"/>
<path d="M217 888 c-21 -46 -37 -86 -37 -90 0 -17 39 -7 45 12 5 16 15 20 50
20 35 0 45 -4 50 -20 4 -13 15 -20 30 -20 24 0 24 0 -17 90 -34 73 -45 90 -63
90 -18 0 -29 -16 -58 -82z m78 -5 c5 -20 3 -23 -19 -23 -30 0 -30 0 -14 35 12
27 22 24 33 -12z"/>
<path d="M590 880 c0 -83 1 -90 20 -90 17 0 20 7 20 52 l0 52 30 -47 c16 -26
32 -47 35 -47 3 0 18 21 35 48 l30 47 0 -52 c0 -46 3 -53 20 -53 19 0 20 7 20
90 0 82 -2 90 -19 90 -13 0 -30 -18 -51 -55 -17 -30 -33 -55 -35 -55 -2 0 -18
25 -35 55 -21 37 -38 55 -51 55 -17 0 -19 -8 -19 -90z"/>
<path d="M920 880 c0 -82 2 -90 19 -90 17 0 20 8 23 48 l3 47 24 -42 c14 -24
28 -43 33 -43 4 0 18 18 30 40 13 22 26 40 31 40 4 0 7 -20 7 -45 0 -38 3 -45
20 -45 19 0 20 7 20 90 0 83 -2 90 -20 90 -11 0 -26 -10 -33 -22 -8 -13 -23
-38 -34 -57 l-20 -33 -34 56 c-21 34 -41 56 -51 56 -16 0 -18 -11 -18 -90z"/>
<path d="M1170 880 c0 -83 1 -90 20 -90 17 0 20 7 20 52 l0 52 30 -47 c16 -26
32 -47 35 -47 3 0 19 21 35 47 l30 47 0 -52 c0 -45 3 -52 20 -52 19 0 20 7 20
90 0 82 -2 90 -19 90 -13 0 -30 -19 -52 -56 l-32 -56 -34 56 c-23 37 -41 56
-54 56 -17 0 -19 -8 -19 -90z"/>
<path d="M1521 893 c-18 -43 -36 -84 -38 -90 -8 -22 35 -15 47 7 8 15 21 20
50 20 30 0 40 -5 45 -20 4 -13 15 -20 31 -20 13 0 24 2 24 4 0 2 -18 42 -40
90 -33 71 -44 86 -63 86 -19 0 -28 -13 -56 -77z m79 -20 c0 -7 -11 -13 -24
-13 -23 0 -24 2 -13 30 11 28 13 29 24 13 7 -9 13 -23 13 -30z"/>
<path d="M1870 880 c0 -83 1 -90 20 -90 19 0 20 7 20 90 0 83 -1 90 -20 90
-19 0 -20 -7 -20 -90z"/>
<path d="M1977 886 c-20 -47 -37 -87 -37 -90 0 -15 41 -4 50 14 8 15 21 20 50
20 30 0 40 -5 45 -20 4 -13 15 -20 30 -20 l24 0 -19 45 c-11 25 -29 65 -40 90
-15 35 -24 45 -43 45 -20 0 -29 -13 -60 -84z m78 -3 c5 -20 3 -23 -19 -23 -24
0 -24 2 -14 31 11 32 21 29 33 -8z"/>
</g>
</svg>
