<svg width="274" height="59" viewBox="0 0 274 59" fill="none" xmlns="http://www.w3.org/2000/svg">
<path d="M24.2693 13.3245L23.5007 14.1603L24.6343 15.2075L45.7982 34.8439L23.5007 56.1807L23.8177 56.5362L49.4873 34.7766L24.2693 13.3245Z" fill="white"/>
<path d="M26.9113 1.18149L27.6126 1.95004L6.45832 22.5663L27.5934 44.0281L26.9305 44.8158L1.55882 23.3061L26.9113 1.18149Z" fill="white"/>
<path d="M10.0992 25.6599C9.43634 24.9586 9.03285 24.0267 9.03285 22.9892C9.03285 22.0669 9.35948 21.2215 9.88786 20.5587L27.6125 1.9502L4.45999 22.1246C3.93161 22.5857 3.93161 23.4119 4.45999 23.873L27.5933 44.0282L11.0599 26.6686L10.0992 25.6599Z" fill="#A00C28"/>
<path d="M27.4492 1.75805L25.816 0L0.396283 22.1246C-0.132094 22.5857 -0.132094 23.4119 0.396283 23.873L25.8641 46.036L27.4492 44.2396L4.04689 23.873C3.51851 23.4119 3.51851 22.5857 4.04689 22.1246L27.4492 1.75805Z" fill="#B81C22"/>
<path d="M41.0525 37.8317C41.7153 37.1304 42.1188 36.1985 42.1188 35.161C42.1188 34.2387 41.7922 33.3933 41.2638 32.7304L23.6833 14.3237L46.6917 34.2963C47.2201 34.7575 47.2201 35.5837 46.6917 36.0448L23.7025 55.979L40.0918 38.8404L41.0525 37.8317Z" fill="#B81C22"/>
<path d="M23.7025 13.9396L25.3261 12.1815L50.7554 34.2965C51.2838 34.7576 51.2838 35.5838 50.7554 36.0449L25.2877 58.208L23.7025 56.4115L47.1048 36.0545C47.6332 35.5934 47.6332 34.7672 47.1048 34.3061L23.7025 13.9396Z" fill="#A00C28"/>
<path d="M63.7534 16.1115L62.4757 15.5543C62.274 15.4679 62.1971 15.2085 62.322 15.0259C63.5037 13.2103 64.3395 11.2985 64.6853 9.24262C64.7237 9.05048 64.8967 8.91599 65.0984 8.94481L66.3953 9.15616C66.5971 9.18498 66.7316 9.38672 66.6931 9.58847L66.5586 10.2417C66.5106 10.4627 66.6835 10.6836 66.9141 10.6836H75.3105C75.5122 10.6836 75.6756 10.847 75.6756 11.0487V12.3937C75.6756 12.5954 75.5122 12.7587 75.3105 12.7587H66.0687C65.915 12.7587 65.7901 12.8548 65.7325 12.9893C65.2617 14.2094 64.7237 15.2181 64.1954 15.9962C64.0993 16.1307 63.9168 16.1788 63.7534 16.1115ZM74.2633 27.4092H74.638C74.8398 27.4092 75.0031 27.5725 75.0031 27.7742V29.0135C75.0031 29.2153 74.8398 29.3786 74.638 29.3786H73.8022C73.6389 29.3786 73.4948 29.4939 73.4564 29.6572C73.0913 31.1078 72.5341 32.0589 71.804 32.5008C70.9778 32.9139 69.5752 32.9139 67.5962 32.4912C67.4137 32.4528 67.2888 32.2895 67.308 32.1069L67.4233 30.6083C67.4425 30.3681 67.6827 30.2144 67.9036 30.2912C68.5953 30.541 69.1525 30.6851 69.556 30.7139H69.6136L70.2573 30.6659L70.3822 30.6371C70.6416 30.5314 70.8529 30.2816 71.0258 29.8781C71.1219 29.638 70.9394 29.3786 70.6896 29.3786H65.06L64.8774 30.0895L63.2923 29.8205C63.0906 29.7821 62.9561 29.5803 63.0041 29.3786C63.5805 26.9096 64.032 24.8538 64.3491 23.2302C64.3875 23.0092 64.2146 22.8075 63.9936 22.8075H62.8216C62.6198 22.8075 62.4565 22.6442 62.4565 22.4424V21.1743C62.4565 20.9726 62.6198 20.8093 62.8216 20.8093H64.7622V20.7612C64.9927 18.8975 65.0984 17.0818 65.0696 15.2661C65.0408 15.0356 65.0984 14.853 65.1945 14.7281C65.2713 14.6032 65.425 14.5456 65.6268 14.5456H73.9175C74.1 14.5456 74.2537 14.5936 74.3786 14.7281C74.5804 14.9299 74.6092 16.8416 74.4747 20.4346C74.4651 20.6363 74.6284 20.8189 74.8398 20.8189H75.5315C75.7332 20.8189 75.8965 20.9822 75.8965 21.1839V22.452C75.8965 22.6538 75.7332 22.8171 75.5315 22.8171H74.6764C74.4843 22.8171 74.3306 22.9612 74.3114 23.1533C74.2537 24.2773 74.1096 25.5743 73.9175 27.0057C73.8791 27.217 74.052 27.4092 74.2633 27.4092ZM66.4338 22.8075L66.3857 23.1149C66.2224 24.2677 65.9822 25.5743 65.646 26.9673C65.5884 27.1978 65.7613 27.4188 65.9918 27.4188H71.3333C71.5158 27.4188 71.6695 27.2843 71.6887 27.1018L72.0346 24.5559L72.1883 23.2206C72.2171 23.0092 72.0442 22.8171 71.8232 22.8171H66.4338V22.8075ZM72.0826 20.8093C72.2747 20.8093 72.4284 20.6556 72.4477 20.4634C72.611 18.1001 72.6206 16.784 72.4765 16.5823C72.4284 16.5342 72.3228 16.4766 72.1691 16.5054H67.356L67.1255 16.5342L67.0198 16.8416C67.0198 17.687 66.9333 18.8783 66.7412 20.3962C66.7124 20.6171 66.8853 20.8093 67.0966 20.8093H72.0826ZM69.4023 23.7778C69.825 24.4311 70.2189 25.1227 70.5839 25.8337C70.68 26.0162 70.5935 26.2468 70.4014 26.3332L69.239 26.8424C69.066 26.9192 68.8643 26.852 68.7778 26.6887L67.6826 24.7193C67.5866 24.5367 67.6538 24.3158 67.8364 24.2197L68.9219 23.6529C69.0949 23.5664 69.3062 23.6145 69.4023 23.7778ZM69.9787 17.3508C70.411 17.9656 70.8145 18.5805 71.1603 19.2049C71.266 19.3875 71.1892 19.6084 70.997 19.7045L69.9018 20.2521C69.7289 20.3385 69.5176 20.2713 69.4215 20.108C68.9988 19.3875 68.6337 18.811 68.3263 18.3883C68.2014 18.2154 68.2495 17.9753 68.432 17.8696L69.4791 17.2547C69.6617 17.1491 69.873 17.1971 69.9787 17.3508ZM76.4345 18.8591L75.0895 18.4556C74.8782 18.3883 74.7725 18.1482 74.8782 17.9464C76.2616 15.2277 77.0782 12.3552 77.2703 9.36751C77.2799 9.17537 77.4432 9.02166 77.645 9.03127L78.9515 9.0793C79.1628 9.08891 79.3262 9.27144 79.2973 9.48279L79.1052 11.2793C79.086 11.4906 79.2493 11.6828 79.4703 11.6828H85.513C85.7147 11.6828 85.878 11.8461 85.878 12.0478V13.3928C85.878 13.5945 85.7147 13.7578 85.513 13.7578H84.7732C84.5715 13.7578 84.4178 13.9212 84.4178 14.1133C84.389 17.1683 83.9567 19.9831 83.1497 22.5097L83.1401 22.5481L81.7855 25.7952C81.7375 25.9009 81.7471 26.0162 81.8047 26.1123C82.5252 27.3611 83.803 29.1096 85.7243 31.2807C85.8876 31.4633 85.83 31.7419 85.609 31.8475L84.3217 32.4624C84.1776 32.5296 83.9951 32.4912 83.8798 32.3663C82.6886 30.9829 81.6894 29.5995 80.8633 28.2738C80.7288 28.0528 80.4213 28.0528 80.2676 28.2546C79.0187 29.9166 77.5009 31.3672 75.8004 32.5296C75.6659 32.6257 75.4738 32.6065 75.3489 32.5008L74.2633 31.5497C74.0808 31.3864 74.1096 31.1078 74.3114 30.9733C76.3865 29.6476 78.1061 27.9952 79.4318 26.0354C79.5087 25.9297 79.5183 25.7952 79.4607 25.6703C78.4808 23.6433 77.7506 21.0014 77.3279 17.8215L76.8572 18.6766C76.7803 18.8303 76.5978 18.9071 76.4345 18.8591ZM80.9785 23.0669C81.9584 20.5307 82.41 17.5237 82.3619 14.1133C82.3619 13.9116 82.1986 13.7482 81.9969 13.7482H79.0572C78.8458 13.7482 78.6825 13.9308 78.6921 14.1325C78.8362 17.0338 79.2109 19.5123 79.7777 21.5202C79.9026 21.9813 80.0755 22.4905 80.3061 23.0669C80.4117 23.3839 80.8536 23.3743 80.9785 23.0669Z" fill="#4C4948"/>
<path d="M98.9914 23.6617C96.9259 26.1018 94.1207 28.6188 90.595 31.2031C90.4221 31.328 90.1819 31.2799 90.0666 31.107L89.2597 29.8581C89.154 29.6948 89.202 29.4835 89.3557 29.3682C91.5269 27.7927 93.2177 26.4861 94.3993 25.4486C95.2639 24.6896 96.215 23.6329 97.2718 22.3264C97.3967 22.1726 97.6176 22.1438 97.7713 22.2591L98.9241 23.1429C99.0971 23.2582 99.1259 23.4984 98.9914 23.6617ZM112.134 13.1902V14.6409C112.134 14.8426 111.97 15.0059 111.768 15.0059H102.181V15.4382L102.459 17.3404V17.3692C102.873 19.3578 103.507 20.943 104.352 22.1342C106.148 24.9971 108.829 27.6678 112.393 30.0983C112.595 30.2328 112.614 30.521 112.422 30.6747L111.202 31.6738C111.077 31.7795 110.885 31.7795 110.75 31.6834C107.013 28.8974 104.371 26.2652 102.853 23.8538C102.661 23.5368 102.181 23.6713 102.181 24.0364V29.8293C102.181 30.7996 101.797 31.5681 100.98 32.135C100.067 32.7498 98.3189 32.6825 95.7827 31.9332C95.6194 31.8852 95.5137 31.7315 95.5137 31.5681L95.581 29.9638C95.5906 29.7236 95.8211 29.5603 96.0517 29.6276L97.5792 30.0791C98.5783 30.3385 99.2892 30.3097 99.6735 29.9734C99.856 29.8485 99.904 29.5891 99.904 29.2337V15.3614C99.904 15.1596 99.7407 14.9963 99.539 14.9963H89.9802C89.7784 14.9963 89.6151 14.833 89.6151 14.6313V13.1806C89.6151 12.9789 89.7784 12.8156 89.9802 12.8156H99.539C99.7407 12.8156 99.904 12.6523 99.904 12.4505V9.53003C99.904 9.32828 100.067 9.16496 100.269 9.16496H101.816C102.018 9.16496 102.181 9.32828 102.181 9.53003V12.4601C102.181 12.6619 102.344 12.8252 102.546 12.8252H106.677C107.042 12.8252 107.176 12.3544 106.879 12.1527C106.072 11.6147 105.274 11.1536 104.487 10.7693C104.294 10.6732 104.227 10.4331 104.342 10.2601L105.101 9.05929C105.197 8.90558 105.409 8.84794 105.572 8.92479C106.888 9.56845 108.07 10.3082 109.127 11.0671C109.29 11.1824 109.319 11.4226 109.203 11.5763L108.704 12.2392C108.521 12.4793 108.694 12.8156 108.992 12.8156H111.768C111.97 12.8252 112.134 12.9885 112.134 13.1902ZM92.4299 17.033C93.8229 18.3491 94.9853 19.55 95.8788 20.5875C96.0133 20.7412 95.9844 20.9718 95.8307 21.1063L94.7356 21.9997C94.5818 22.1246 94.3513 22.0958 94.2264 21.9421C93.1792 20.6644 92.0649 19.5212 90.9024 18.5413C90.7391 18.4068 90.7295 18.157 90.8832 18.0033L91.9207 17.033C92.0648 16.8985 92.2858 16.8985 92.4299 17.033ZM111.423 18.0321C110.337 19.4347 108.877 20.9334 107.032 22.5569C106.879 22.6914 106.648 22.6818 106.514 22.5281L105.553 21.4137C105.428 21.26 105.447 21.039 105.591 20.9045C107.388 19.3098 108.752 17.9072 109.684 16.716C109.809 16.5622 110.02 16.5334 110.183 16.6487L111.346 17.5133C111.509 17.6382 111.548 17.8688 111.423 18.0321Z" fill="#4C4948"/>
<path d="M116.783 22.1342L116.015 20.8757C115.89 20.674 115.995 20.4146 116.226 20.3378C118.512 19.6269 120.136 18.5509 121.077 17.1579C121.241 16.9177 121.068 16.5815 120.78 16.5815H116.85C116.649 16.5815 116.485 16.4182 116.485 16.2164V14.9675C116.485 14.7658 116.649 14.6025 116.85 14.6025H121.932V14.4103V12.7483C121.932 12.5466 121.769 12.3833 121.567 12.3833H119.55C119.425 12.3833 119.31 12.4505 119.243 12.5562C118.916 13.0942 118.503 13.6034 118.051 14.0933C117.907 14.2566 117.638 14.247 117.504 14.0741C117.196 13.6898 116.898 13.392 116.601 13.1422C116.437 13.0077 116.428 12.7772 116.572 12.6235C117.475 11.6243 118.167 10.4427 118.637 9.10735C118.705 8.90561 118.926 8.80954 119.118 8.88639L120.78 9.57809L120.395 10.3947H127.735C127.937 10.3947 128.1 10.558 128.1 10.7597V11.999C128.1 12.2008 127.937 12.3641 127.735 12.3641H124.238C124.036 12.3641 123.873 12.5274 123.873 12.7291V14.4103V14.6121H128.244C128.446 14.6121 128.609 14.7754 128.609 14.9771V16.226C128.609 16.4278 128.446 16.5911 128.244 16.5911H125.304C124.949 16.5911 124.805 17.0522 125.103 17.254C126.102 17.9264 127.072 18.6181 128.033 19.3387C128.187 19.4539 128.225 19.6845 128.11 19.8478L127.293 20.9814C127.168 21.1543 126.928 21.1832 126.765 21.0487C125.727 20.1648 124.546 19.2234 123.133 18.205C122.96 18.0802 122.72 18.1282 122.615 18.3107C121.596 19.8958 119.781 21.2504 117.225 22.288C117.071 22.3456 116.879 22.288 116.783 22.1342ZM120.905 32.5289H119.56C119.358 32.5289 119.195 32.3655 119.195 32.1638V22.1439C119.166 21.9133 119.271 21.8364 119.502 21.8364H136.276C136.477 21.8364 136.641 21.9998 136.641 22.2015V32.1734C136.641 32.3752 136.477 32.5385 136.276 32.5385H134.931C134.729 32.5385 134.566 32.3752 134.566 32.1734V31.7699C134.566 31.5682 134.402 31.4049 134.2 31.4049H121.625C121.423 31.4049 121.26 31.5682 121.26 31.7699V32.1734C121.27 32.3655 121.106 32.5289 120.905 32.5289ZM134.21 25.6215C134.412 25.6215 134.575 25.4582 134.575 25.2565V24.0556C134.575 23.9019 134.469 23.7962 134.268 23.7962H121.558C121.356 23.7962 121.25 23.9019 121.279 24.0748V25.2469C121.279 25.4486 121.443 25.6119 121.644 25.6119H134.21V25.6215ZM121.27 27.956V29.0416C121.27 29.2433 121.433 29.4066 121.635 29.4066H134.21C134.412 29.4066 134.575 29.2433 134.575 29.0416V27.956C134.575 27.7543 134.412 27.5909 134.21 27.5909H121.635C121.433 27.5909 121.27 27.7543 121.27 27.956ZM138.456 20.5011H129.964C129.781 20.5011 129.685 20.3954 129.685 20.1937V10.5772C129.685 10.3755 129.849 10.2121 130.05 10.2121H138.379C138.581 10.2121 138.744 10.3755 138.744 10.5772V20.1937C138.744 20.405 138.639 20.5011 138.456 20.5011ZM131.837 12.2104L131.76 12.2584V18.426L131.837 18.5317H136.573L136.679 18.426V12.2584L136.573 12.2104H131.837Z" fill="#4C4948"/>
<path d="M146.987 28.9167C146.209 30.3481 145.335 31.5201 144.355 32.4232C144.192 32.5769 143.932 32.5288 143.807 32.3463C143.538 31.9524 143.269 31.6354 143 31.376C142.847 31.2319 142.866 30.9918 143.02 30.8573C143.846 30.1079 144.528 29.1376 145.066 27.9464C145.152 27.7542 145.373 27.6678 145.556 27.7639L146.824 28.4171C147.016 28.5132 147.083 28.7437 146.987 28.9167ZM143.068 17.5037L142.972 16.447C142.952 16.2356 143.125 16.0531 143.337 16.0531H147.487C147.688 16.0531 147.852 15.8898 147.852 15.688V15.1116C147.852 14.9099 147.688 14.7466 147.487 14.7466H144.019C143.817 14.7466 143.654 14.5832 143.654 14.3815V13.4496C143.654 13.2479 143.817 13.0846 144.019 13.0846H147.487C147.688 13.0846 147.852 12.9213 147.852 12.7195V12.4217C147.852 12.22 147.688 12.0566 147.487 12.0566H143.51C143.308 12.0566 143.144 11.8933 143.144 11.6916V10.7309C143.144 10.5292 143.308 10.3658 143.51 10.3658H147.487C147.688 10.3658 147.852 10.2025 147.852 10.0008V9.25144C147.852 9.0497 148.015 8.88638 148.217 8.88638H149.562C149.764 8.88638 149.927 9.0497 149.927 9.25144V10.0104C149.927 10.2121 150.09 10.3754 150.292 10.3754H153.51C153.712 10.3754 153.875 10.5388 153.875 10.7405V11.7012C153.875 11.9029 153.712 12.0663 153.51 12.0663H150.292C150.09 12.0663 149.927 12.2296 149.927 12.4313V12.7291C149.927 12.9309 150.09 13.0942 150.292 13.0942H153.02C153.222 13.0942 153.385 13.2575 153.385 13.4592V14.4007C153.385 14.6025 153.222 14.7658 153.02 14.7658H150.292C150.09 14.7658 149.927 14.9291 149.927 15.1308V15.5439C149.927 15.7553 150.109 15.9282 150.33 15.909L153.126 15.6016C153.328 15.5824 153.501 15.7265 153.529 15.9186L153.654 16.985C153.674 17.1771 153.539 17.35 153.347 17.3884C152.55 17.5229 151.416 17.6478 149.927 17.7343V18.5317H147.852V17.8112L143.433 17.8592C143.241 17.84 143.087 17.6959 143.068 17.5037ZM163.127 26.0827C163.127 26.4957 162.925 26.6975 162.483 26.6975H146.449C146.247 26.6975 146.084 26.5342 146.084 26.3324V25.2949C146.084 25.0931 146.247 24.9298 146.449 24.9298H160.687C160.888 24.9298 161.052 24.7665 161.052 24.5648V24.1613C161.052 23.9595 160.888 23.7962 160.687 23.7962H143.404C143.202 23.7962 143.039 23.6329 143.039 23.4312V22.3648C143.039 22.1631 143.202 21.9997 143.404 21.9997H160.687C160.888 21.9997 161.052 21.8364 161.052 21.6347V21.0391C161.052 20.9334 161.004 20.8853 160.869 20.8853H146.526C146.324 20.8853 146.161 20.722 146.161 20.5203V19.4827C146.161 19.281 146.324 19.1177 146.526 19.1177H162.483C162.915 19.1177 163.127 19.3194 163.127 19.7325V21.6443C163.127 21.846 163.29 22.0093 163.492 22.0093H165.913C166.114 22.0093 166.278 22.1727 166.278 22.3744V23.4408C166.278 23.6425 166.114 23.8058 165.913 23.8058H163.492C163.29 23.8058 163.127 23.9691 163.127 24.1709V26.0827ZM158.17 30.3289H158.218L159.111 30.204C159.294 30.1271 159.447 30.0022 159.572 29.7717C159.659 29.6852 159.774 29.2049 159.86 28.3787C159.88 28.1769 160.072 28.0328 160.273 28.0617L161.628 28.2826C161.82 28.3114 161.955 28.494 161.935 28.6765C161.782 30.2616 161.561 31.2223 161.33 31.5105C161.023 31.9236 160.687 32.1734 160.379 32.2791C160.043 32.3559 159.534 32.404 158.871 32.404H150.916C150.33 32.404 149.84 32.2791 149.456 31.9909C148.745 31.5009 148.38 30.5594 148.438 29.3106V27.37C148.438 27.1682 148.601 27.0049 148.803 27.0049H150.148C150.35 27.0049 150.513 27.1682 150.513 27.37V28.9551C150.484 29.4643 150.561 29.8005 150.695 29.9542C150.897 30.2136 151.281 30.3385 151.819 30.3385H154.673C154.98 30.3385 155.143 29.9734 154.942 29.7333C154.529 29.2529 154.144 28.859 153.789 28.542C153.635 28.4075 153.635 28.1577 153.789 28.0136L154.692 27.1394C154.826 27.0049 155.038 26.9953 155.182 27.1202C155.777 27.6486 156.392 28.3018 157.036 29.1088C157.161 29.2625 157.142 29.4835 156.988 29.618L156.152 30.3385H158.17V30.3289ZM154.74 17.1002V16.1396C154.74 15.9378 154.903 15.7745 155.105 15.7745H159.082C159.284 15.7745 159.447 15.6112 159.447 15.4094V15.1116C159.447 14.9099 159.284 14.7466 159.082 14.7466H156.018C155.816 14.7466 155.653 14.5832 155.653 14.3815V13.4496C155.653 13.2479 155.816 13.0846 156.018 13.0846H159.082C159.284 13.0846 159.447 12.9213 159.447 12.7195V12.316C159.447 12.1143 159.284 11.951 159.082 11.951H155.614C155.412 11.951 155.249 11.7877 155.249 11.5859V10.6252C155.249 10.4235 155.412 10.2602 155.614 10.2602H159.082C159.284 10.2602 159.447 10.0968 159.447 9.8951V9.25144C159.447 9.0497 159.611 8.88638 159.812 8.88638H161.157C161.359 8.88638 161.522 9.0497 161.522 9.25144V9.90471C161.522 10.1065 161.686 10.2698 161.887 10.2698H165.721C165.922 10.2698 166.086 10.4331 166.086 10.6348V11.5955C166.086 11.7973 165.922 11.9606 165.721 11.9606H161.887C161.686 11.9606 161.522 12.1239 161.522 12.3256V12.7291C161.522 12.9309 161.686 13.0942 161.887 13.0942H165.202C165.404 13.0942 165.567 13.2575 165.567 13.4592V14.4007C165.567 14.6025 165.404 14.7658 165.202 14.7658H161.887C161.686 14.7658 161.522 14.9291 161.522 15.1308V15.4286C161.522 15.6304 161.686 15.7937 161.887 15.7937H166.105C166.307 15.7937 166.47 15.957 166.47 16.1588V17.1195C166.47 17.3212 166.307 17.4845 166.105 17.4845H161.887C161.686 17.4845 161.522 17.6478 161.522 17.8496V18.2723C161.522 18.474 161.359 18.6373 161.157 18.6373H159.812C159.611 18.6373 159.447 18.474 159.447 18.2723V17.8496C159.447 17.6478 159.284 17.4845 159.082 17.4845H155.105C154.894 17.4557 154.74 17.2924 154.74 17.1002ZM164.289 27.5621C164.981 28.5036 165.653 29.7044 166.326 31.1647C166.412 31.3472 166.335 31.5682 166.153 31.645L164.942 32.2118C164.76 32.2983 164.549 32.2118 164.462 32.0389C163.809 30.6843 163.194 29.5892 162.618 28.7918C162.502 28.6285 162.531 28.4075 162.694 28.2826L163.79 27.4853C163.943 27.3796 164.174 27.4084 164.289 27.5621Z" fill="#4C4948"/>
<path d="M173.06 22.4993C173.06 22.2975 172.983 22.1919 172.801 22.1919H170.601C170.399 22.1919 170.236 22.0286 170.236 21.8268V20.3762C170.236 20.1744 170.399 20.0111 170.601 20.0111H174.866C175.068 20.0111 175.231 20.1744 175.231 20.3762V27.2931L175.27 27.4564C175.433 27.7927 175.693 28.1481 176.058 28.4844C176.461 28.9935 177.278 29.4258 178.421 29.8293L178.459 29.8389C179.862 30.2136 184.608 30.2424 192.649 29.9254C192.889 29.9158 193.071 30.1367 193.023 30.3673L192.649 32.0773C192.61 32.2406 192.456 32.3655 192.293 32.3655L181.841 32.2118C178.392 32.2118 175.962 31.4433 174.626 29.935C174.472 29.7621 174.203 29.8005 174.069 29.983C173.781 30.3769 173.348 30.7804 172.791 31.2319C172.109 31.7603 171.456 32.135 170.803 32.3847C170.63 32.452 170.428 32.3559 170.351 32.183L169.727 30.7996C169.64 30.6075 169.736 30.3865 169.938 30.3097C171.062 29.887 171.84 29.4258 172.234 28.9551C172.724 28.3691 173.031 27.6293 173.079 26.7551V22.4993H173.06ZM171.6 14.4487C172.628 15.0444 173.723 15.8802 174.924 16.9465C175.068 17.0714 175.087 17.2924 174.972 17.4461L174.059 18.5893C173.934 18.7526 173.694 18.7718 173.531 18.6373C172.33 17.5998 171.273 16.7832 170.38 16.2452C170.197 16.1299 170.14 15.8994 170.274 15.7168L171.129 14.5448C171.235 14.4007 171.437 14.3527 171.6 14.4487ZM172.071 9.53003C173.07 10.0872 174.136 10.8366 175.299 11.8069C175.443 11.9317 175.472 12.1527 175.356 12.3064L174.463 13.4881C174.338 13.6514 174.098 13.6802 173.934 13.5457C172.782 12.6042 171.773 11.8741 170.899 11.3938C170.707 11.2881 170.649 11.0575 170.774 10.875L171.59 9.64532C171.696 9.50121 171.907 9.44357 172.071 9.53003ZM176.307 27.1298V25.8809C176.307 25.6792 176.471 25.5158 176.672 25.5158H183.061C183.263 25.5158 183.426 25.3525 183.426 25.1508V24.4399C183.426 24.2381 183.263 24.0748 183.061 24.0748H177.691C177.508 24.0748 177.412 23.998 177.412 23.7962V16.4854C177.412 16.2837 177.575 16.1203 177.777 16.1203H183.061C183.263 16.1203 183.426 15.957 183.426 15.7553V15.1981C183.426 14.9963 183.263 14.833 183.061 14.833H179.084C178.882 14.833 178.719 14.6697 178.719 14.468V13.3247C178.719 13.123 178.882 12.9597 179.084 12.9597H183.061C183.263 12.9597 183.426 12.7964 183.426 12.5946V11.7876C183.426 11.5859 183.263 11.4226 183.061 11.4226H178.258C178.056 11.4226 177.893 11.5859 177.893 11.7876V14.2566C177.893 14.4584 177.729 14.6217 177.527 14.6217H176.182C175.981 14.6217 175.817 14.4584 175.817 14.2566V9.91431C175.817 9.71256 175.981 9.54925 176.182 9.54925H191.746L191.909 9.58767L193.302 10.289C193.436 10.3562 193.513 10.4907 193.504 10.6348C193.417 11.778 193.167 13.1038 192.687 14.5928C192.629 14.785 192.418 14.8907 192.226 14.833L190.939 14.4199C190.746 14.3623 190.65 14.1509 190.708 13.9588C191.073 12.7772 191.265 12.0278 191.294 11.7204C191.323 11.5187 191.217 11.413 191.064 11.413H185.847C185.645 11.413 185.482 11.5763 185.482 11.778V12.585C185.482 12.7868 185.645 12.9501 185.847 12.9501H189.959C190.16 12.9501 190.324 13.1134 190.324 13.3151V14.4584C190.324 14.6601 190.16 14.8234 189.959 14.8234H185.847C185.645 14.8234 185.482 14.9867 185.482 15.1885V15.7457C185.482 15.9474 185.645 16.1107 185.847 16.1107H191.006C191.208 16.1107 191.371 16.274 191.371 16.4758V23.7866C191.371 23.9883 191.265 24.0652 191.092 24.0652H185.847C185.645 24.0652 185.482 24.2285 185.482 24.4303V25.1412C185.482 25.3429 185.645 25.5062 185.847 25.5062H192.36C192.562 25.5062 192.725 25.6695 192.725 25.8713V27.1202C192.725 27.3219 192.562 27.4852 192.36 27.4852H185.847C185.645 27.4852 185.482 27.6486 185.482 27.8503V29.4258C185.482 29.6276 185.319 29.7909 185.117 29.7909H183.772C183.57 29.7909 183.407 29.6276 183.407 29.4258V27.8503C183.407 27.6486 183.244 27.4852 183.042 27.4852H176.653C176.471 27.4852 176.307 27.3219 176.307 27.1298ZM183.416 18.2531C183.416 18.0513 183.253 17.888 183.051 17.888H179.554L179.478 17.9649V18.9063C179.478 19.1081 179.641 19.2714 179.843 19.2714H183.061C183.263 19.2714 183.426 19.1081 183.426 18.9063V18.2531H183.416ZM183.061 20.943H179.843C179.641 20.943 179.478 21.1063 179.478 21.308V22.2207L179.554 22.3264H183.051C183.253 22.3264 183.416 22.163 183.416 21.9613V21.308C183.416 21.0967 183.253 20.943 183.061 20.943ZM185.857 19.2714H188.94C189.142 19.2714 189.305 19.1081 189.305 18.9063V17.9649L189.2 17.888H185.857C185.655 17.888 185.492 18.0513 185.492 18.2531V18.9063C185.492 19.1177 185.655 19.2714 185.857 19.2714ZM185.492 21.9613C185.492 22.163 185.655 22.3264 185.857 22.3264H189.2L189.305 22.2207V21.308C189.305 21.1063 189.142 20.943 188.94 20.943H185.857C185.655 20.943 185.492 21.1063 185.492 21.308V21.9613Z" fill="#4C4948"/>
<path d="M200.228 12.1432C199.748 12.9886 199.104 13.7475 198.355 14.4104C198.23 14.5257 198.038 14.5257 197.894 14.4296L196.866 13.6611C196.683 13.5266 196.674 13.2672 196.837 13.1135C198.105 11.8934 199.056 10.5388 199.662 9.08819C199.738 8.90566 199.95 8.80959 200.132 8.89605L201.612 9.5205L201.333 10.1065H207.136C207.337 10.1065 207.501 10.2698 207.501 10.4716V11.6148C207.501 11.8165 207.337 11.9799 207.136 11.9799H205.003C204.753 11.9799 204.58 12.22 204.657 12.4602L204.868 13.1039C204.936 13.296 204.83 13.4977 204.647 13.565L203.437 13.9877C203.245 14.0549 203.043 13.9589 202.976 13.7667L202.438 12.2296C202.39 12.0855 202.246 11.9895 202.092 11.9895H200.536C200.411 11.9606 200.296 12.0279 200.228 12.1432ZM205.07 28.3788C204.907 28.3788 204.763 28.494 204.724 28.6477C204.532 29.3106 204.167 29.9255 203.687 30.4442C202.678 31.4529 200.968 32.1542 198.518 32.5481C198.345 32.5769 198.172 32.4713 198.115 32.308L197.625 30.8861C197.548 30.6652 197.702 30.4346 197.942 30.4058C199.892 30.2233 201.285 29.7333 202.082 29.0032C202.323 28.7822 202.169 28.3691 201.833 28.3691H197.145C196.943 28.3691 196.779 28.2058 196.779 28.0041V26.7552C196.779 26.5534 196.943 26.3901 197.145 26.3901H202.64C202.841 26.3901 203.005 26.2268 203.005 26.0251V25.6792C203.005 25.4775 202.841 25.3142 202.64 25.3142H199.863C199.662 25.3142 199.498 25.1508 199.498 24.9491V14.9292C199.498 14.7274 199.662 14.5641 199.863 14.5641H217.559C217.761 14.5641 217.867 14.6698 217.867 14.8427V25.0452C217.867 25.2277 217.761 25.3238 217.559 25.3238H214.725C214.523 25.3238 214.36 25.4871 214.36 25.6888V26.0347C214.36 26.2364 214.523 26.3997 214.725 26.3997H219.759C219.961 26.3997 220.124 26.5631 220.124 26.7648V28.0137C220.124 28.2154 219.961 28.3788 219.759 28.3788H214.725C214.523 28.3788 214.36 28.5421 214.36 28.7438V32.135C214.36 32.3368 214.197 32.5001 213.995 32.5001H212.65C212.448 32.5001 212.285 32.3368 212.285 32.135V28.7438C212.285 28.5421 212.122 28.3788 211.92 28.3788H205.07ZM215.426 17.6671C215.628 17.6671 215.791 17.5038 215.791 17.302V16.5335L215.686 16.4566H201.641L201.564 16.5335V17.302C201.564 17.5038 201.727 17.6671 201.929 17.6671H215.426ZM215.782 20.2129V19.7134C215.782 19.5116 215.619 19.3483 215.417 19.3483H201.919C201.717 19.3483 201.554 19.5116 201.554 19.7134V20.2129C201.554 20.4147 201.717 20.578 201.919 20.578H215.417C215.628 20.578 215.782 20.4147 215.782 20.2129ZM201.929 22.24C201.727 22.24 201.564 22.4033 201.564 22.605V23.3736L201.641 23.4793H215.686L215.791 23.3736V22.605C215.791 22.4033 215.628 22.24 215.426 22.24H201.929ZM211.92 25.343H205.435C205.234 25.343 205.07 25.5063 205.07 25.708V26.0539C205.07 26.2556 205.234 26.419 205.435 26.419H211.92C212.122 26.419 212.285 26.2556 212.285 26.0539V25.708C212.285 25.4967 212.122 25.343 211.92 25.343ZM210.7 11.9606L210.546 12.2681C210.133 12.9501 209.71 13.5073 209.316 13.9685C209.201 14.103 209.009 14.1222 208.855 14.0357L207.741 13.344C207.549 13.2287 207.52 12.9694 207.664 12.7964C208.634 11.7013 209.374 10.5004 209.816 9.2419C209.883 9.04976 210.085 8.95369 210.277 9.01133L211.805 9.5301L211.603 10.0969H219.039C219.24 10.0969 219.404 10.2602 219.404 10.462V11.6052C219.404 11.8069 219.24 11.9702 219.039 11.9702H215.791C215.532 11.9702 215.359 12.2296 215.455 12.4698L215.686 13.0462C215.763 13.2287 215.667 13.4401 215.484 13.5169L214.264 14.0165C214.081 14.0934 213.87 14.0069 213.793 13.8148L213.13 12.2008C213.073 12.0663 212.938 11.9799 212.794 11.9799H210.7V11.9606Z" fill="#4C4948"/>
<path d="M242.931 16.4087H239.924C239.722 16.4087 239.559 16.2453 239.559 16.0436V14.9772C239.559 14.7755 239.722 14.6122 239.924 14.6122H243.296V13.7956H239.924C239.722 13.7956 239.559 13.6323 239.559 13.4305V12.393C239.559 12.1912 239.722 12.0279 239.924 12.0279H243.296V11.2114C243.296 11.0865 243.219 11.0096 243.037 11.0096H240.02C239.818 11.0096 239.655 10.8463 239.655 10.6445V9.58779C239.655 9.38605 239.818 9.22273 240.02 9.22273H244.9C245.102 9.22273 245.265 9.38605 245.265 9.58779V17.4366H245.438L247.014 18.2244C247.148 18.2916 247.225 18.4261 247.216 18.5702C247.119 19.8095 246.851 21.2505 246.341 22.8933C246.284 23.0854 246.072 23.1911 245.89 23.1335L244.603 22.7492C244.41 22.6915 244.305 22.4898 244.362 22.2977C244.727 20.9623 244.9 20.0785 244.9 19.7038C244.9 19.5021 244.823 19.3964 244.641 19.3964H226.071C225.869 19.3964 225.706 19.5597 225.706 19.7614V22.4898C225.706 22.6915 225.543 22.8549 225.341 22.8549H223.996C223.794 22.8549 223.631 22.6915 223.631 22.4898V17.792C223.631 17.5615 223.756 17.4366 224.015 17.4366H224.832C225.033 17.4366 225.197 17.2733 225.197 17.0715V9.70307C225.168 9.36684 225.379 9.19391 225.735 9.21313C227.512 9.26116 229.164 9.10745 230.692 8.79042C230.865 8.752 231.028 8.83846 231.095 9.00177L231.576 10.1642C231.662 10.3756 231.537 10.6157 231.316 10.6638C230.087 10.9135 228.703 11.0576 227.243 11.0576C227.166 11.0576 227.137 11.1345 227.166 11.2402V12.0279H230.413C230.615 12.0279 230.778 12.1912 230.778 12.393V13.4305C230.778 13.6323 230.615 13.7956 230.413 13.7956H227.531C227.329 13.7956 227.166 13.9589 227.166 14.1607V14.3528C227.166 14.5545 227.329 14.7179 227.531 14.7179H230.519C230.721 14.7179 230.884 14.8812 230.884 15.0829V16.1493C230.884 16.351 230.721 16.5143 230.519 16.5143H227.531C227.329 16.5143 227.166 16.6776 227.166 16.8794V17.0715C227.166 17.2733 227.329 17.4366 227.531 17.4366H236.197C236.542 17.4366 236.696 16.9947 236.417 16.7929L235.793 16.303C235.678 16.2165 235.534 16.2069 235.399 16.2742C234.621 16.6873 233.728 17.0331 232.776 17.2445C232.604 17.2829 232.431 17.1964 232.363 17.0331L231.921 16.0244C231.825 15.813 231.96 15.5825 232.181 15.5248C232.786 15.3903 233.362 15.2078 233.92 15.0061L233.17 14.5257C232.997 14.4104 232.949 14.1799 233.074 14.0069L233.718 13.1135L232.853 13.4017C232.69 13.4594 232.507 13.3825 232.421 13.2288L231.902 12.2873C231.797 12.0856 231.893 11.8454 232.104 11.7685C232.709 11.5476 233.266 11.317 233.795 11.0865L232.825 10.5773C232.642 10.4812 232.575 10.2507 232.68 10.0681L233.199 9.1843C233.295 9.02099 233.516 8.95374 233.689 9.04981L235.313 9.93364C235.447 10.0105 235.61 9.99128 235.726 9.89521L236.831 8.95374C236.975 8.82885 237.196 8.83846 237.33 8.98256L238.041 9.75111C238.185 9.90482 238.166 10.145 238.012 10.2795L237.57 10.6542C237.378 10.8175 237.407 11.1153 237.618 11.2402L238.127 11.5476C238.31 11.6533 238.358 11.8934 238.233 12.0664L237.589 12.9886C237.493 13.1231 237.503 13.296 237.599 13.4209L238.147 14.1126C238.272 14.2759 238.243 14.5161 238.07 14.6314L237.647 14.9292C237.445 15.0637 237.445 15.3615 237.628 15.5056L238.262 16.0148C238.425 16.1397 238.445 16.3798 238.31 16.5335L238.06 16.8218C237.858 17.0523 238.022 17.427 238.339 17.427H242.931C243.133 17.427 243.296 17.2637 243.296 17.0619V16.7641C243.296 16.572 243.133 16.4087 242.931 16.4087ZM224.745 27.274V25.9291C224.745 25.7273 224.908 25.564 225.11 25.564H234.045C234.342 25.564 234.515 25.2181 234.333 24.978C234.064 24.6225 233.785 24.2863 233.468 23.9789H234.592L234.736 23.95L236.667 23.0854C237.023 22.9221 236.907 22.3937 236.523 22.3937H229.376C229.174 22.3937 229.011 22.2304 229.011 22.0287V20.7798C229.011 20.578 229.174 20.4147 229.376 20.4147H240.433C240.548 20.4147 240.664 20.4724 240.731 20.5684L241.932 22.3073C242.057 22.4994 241.989 22.7492 241.778 22.8453L236.859 25.0452L237.196 25.5544H245.506C245.707 25.5544 245.871 25.7177 245.871 25.9194V27.2644C245.871 27.4661 245.707 27.6295 245.506 27.6295H238.137L238.31 28.2443L238.32 28.3116C238.512 29.8583 238.185 31.0495 237.263 31.8373C236.465 32.4809 235.495 32.7883 234.371 32.7595C233.314 32.7307 232.094 32.4425 230.721 31.8277C230.567 31.7604 230.48 31.5875 230.509 31.4242L230.749 30.0888C230.797 29.839 231.066 29.7238 231.287 29.839C232.431 30.4635 233.516 30.7229 234.506 30.6844L234.592 30.6748C235.284 30.5211 235.783 30.2137 235.976 29.7334C236.158 29.2915 236.139 28.667 235.908 27.8888C235.86 27.7351 235.716 27.6295 235.553 27.6295H225.081C224.908 27.6391 224.745 27.4758 224.745 27.274ZM235.899 13.9973L236.792 13.4017C237.013 13.2576 237.003 12.931 236.783 12.7965L235.831 12.2105C235.716 12.1432 235.582 12.1336 235.466 12.2009L234.535 12.71C234.294 12.8349 234.285 13.1711 234.506 13.3249L235.505 14.0069C235.61 14.0742 235.774 14.0742 235.899 13.9973Z" fill="#4C4948"/>
<path d="M252.788 32.404H251.337C251.135 32.404 250.972 32.2406 250.972 32.0389V9.83746L251.049 9.57808L251.279 9.53004H256.429L256.611 9.57808L257.735 10.2409C257.87 10.3178 257.937 10.4811 257.908 10.6348L256.477 17.1579C256.371 17.571 256.4 17.8976 256.582 18.1282C257.504 19.4635 258.091 20.7412 258.398 21.9133C258.859 23.8827 258.705 25.3717 257.889 26.3612C257.428 26.8992 256.861 27.2259 256.256 27.3604C255.439 27.5141 254.555 27.4372 253.623 27.1778C253.393 27.1106 253.153 27.2739 253.153 27.5237V32.0389C253.143 32.2406 252.98 32.404 252.788 32.404ZM253.326 11.4994L253.201 11.5475L253.153 11.6724V24.4399C253.153 24.5648 253.21 24.6897 253.316 24.7569C253.96 25.17 254.67 25.3525 255.372 25.3141C255.727 25.2853 255.958 25.1316 256.14 24.9298C256.323 24.6993 256.419 24.3918 256.477 24.0364C256.601 22.8067 255.833 20.7893 254.2 17.9745L254.248 17.9264L254.296 17.8496L255.554 12.1431C255.708 11.682 255.526 11.4802 255.016 11.4994H253.326ZM264.662 22.0382C264.46 22.0382 264.297 22.2015 264.297 22.4032V23.6041C264.297 24.3438 264.172 25.1412 263.941 26.0346C263.221 28.6957 261.318 30.8188 258.36 32.3655C258.206 32.452 258.004 32.404 257.898 32.2599L257.015 31.0878C256.87 30.8957 256.947 30.6267 257.168 30.5306C257.927 30.204 258.6 29.8293 259.186 29.3778C261.107 28.0424 262.154 26.1019 262.202 23.5945V22.3936C262.202 22.1919 262.039 22.0286 261.837 22.0286H259.877C259.676 22.0286 259.512 21.8652 259.512 21.6635V20.3185C259.512 20.1168 259.676 19.9535 259.877 19.9535H272.76C272.962 19.9535 273.125 20.1168 273.125 20.3185V21.6635C273.125 21.8652 272.962 22.0286 272.76 22.0286H269.388C269.186 22.0286 269.023 22.1919 269.023 22.3936V28.6573C269.023 29.0127 269.148 29.3202 269.379 29.5507C269.609 29.7813 269.917 29.887 270.243 29.9062H270.935C271.165 29.9062 271.367 29.8293 271.598 29.6468C271.694 29.5507 271.761 28.7534 271.819 27.2739C271.828 27.0529 272.02 26.8896 272.241 26.9281L273.692 27.1682C273.875 27.197 274.009 27.3604 273.999 27.5525C273.894 29.7044 273.692 30.9437 273.452 31.2127C272.914 31.7795 272.405 32.0773 271.896 32.0773H269.033C268.524 32.0485 267.986 31.7987 267.496 31.3376C267.063 30.8765 266.852 30.4153 266.852 29.8774V22.384C266.852 22.1823 266.689 22.019 266.487 22.019H264.662V22.0382ZM265.017 8.88638H266.468C266.669 8.88638 266.833 9.0497 266.833 9.25144V10.3658C266.833 10.5676 266.996 10.7309 267.198 10.7309H272.117L272.28 10.7693L273.788 11.5187C273.913 11.5859 273.999 11.7108 273.99 11.8549C273.942 13.2575 273.663 14.8715 273.106 16.6968C273.048 16.8889 272.837 16.9946 272.655 16.9369L271.367 16.5527C271.185 16.495 271.069 16.3029 271.117 16.1107C271.492 14.6121 271.694 13.5745 271.665 12.9981C271.694 12.7964 271.588 12.6907 271.406 12.6907H260.848C260.646 12.6907 260.483 12.854 260.483 13.0558V16.3701C260.483 16.5719 260.319 16.7352 260.118 16.7352H258.773C258.571 16.7352 258.408 16.5719 258.408 16.3701V11.0864C258.408 10.8846 258.571 10.7213 258.773 10.7213H264.287C264.489 10.7213 264.652 10.558 264.652 10.3562V9.25144C264.662 9.0497 264.825 8.88638 265.017 8.88638ZM270.339 15.7457V17.0906C270.339 17.2924 270.176 17.4557 269.974 17.4557H261.77C261.568 17.4557 261.405 17.2924 261.405 17.0906V15.7457C261.405 15.5439 261.568 15.3806 261.77 15.3806H269.974C270.176 15.3902 270.339 15.5535 270.339 15.7457Z" fill="#4C4948"/>
<path d="M128.446 51.8961C127.668 51.8961 126.967 51.8193 126.342 51.656C125.727 51.5023 125.17 51.2813 124.68 51.0027L124.7 50.9451L124.748 50.801L124.815 50.58C124.844 50.4935 124.872 50.3975 124.901 50.311C124.93 50.2149 124.969 50.1093 124.997 50.0132C125.026 49.9075 125.065 49.8114 125.093 49.7058C125.122 49.6097 125.151 49.504 125.189 49.408L125.276 49.139L125.343 48.9276L125.382 48.7931L125.391 48.7547L125.42 48.7739C125.631 48.9084 125.881 48.9949 126.112 49.0813C126.362 49.1774 126.611 49.2735 126.861 49.3599C127.361 49.5232 127.879 49.6577 128.408 49.725C128.533 49.7442 128.648 49.7538 128.773 49.7634C129.051 49.7826 129.34 49.773 129.609 49.7058C129.878 49.6385 130.147 49.5136 130.329 49.3023C130.531 49.0813 130.646 48.7835 130.646 48.4761C130.656 47.5058 129.762 47.0447 128.975 46.7469C128.35 46.5163 127.697 46.3434 127.072 46.0936C126.659 45.9207 126.285 45.6997 125.939 45.4307C125.593 45.1521 125.305 44.8159 125.084 44.4028C124.853 43.9897 124.738 43.4901 124.738 42.8945C124.738 42.4526 124.815 42.0299 124.978 41.6264C125.132 41.2325 125.382 40.8867 125.718 40.5889C126.054 40.3007 126.486 40.0701 127.015 39.8972C127.543 39.7242 128.168 39.6474 128.907 39.6378C129.57 39.6378 130.185 39.705 130.742 39.8299C131.328 39.9644 131.789 40.1277 132.327 40.4063L131.645 42.443C131.203 42.2412 130.742 42.0971 130.262 41.9915C129.772 41.8858 129.282 41.8282 128.782 41.8378C128.321 41.8474 127.841 41.905 127.437 42.1548C127.303 42.2412 127.169 42.3469 127.082 42.4814C126.9 42.7696 126.938 43.1539 127.101 43.4517C127.361 43.9321 127.899 44.2203 128.389 44.4124C128.658 44.5181 128.936 44.6141 129.215 44.7102C129.637 44.8543 130.06 45.008 130.492 45.1906C130.925 45.3731 131.319 45.6036 131.665 45.8822C132.01 46.1608 132.299 46.5067 132.52 46.9102C132.74 47.3137 132.856 47.8036 132.856 48.3896C132.856 48.9853 132.74 49.504 132.51 49.9363C132.279 50.3686 131.972 50.7337 131.588 51.0219C131.194 51.3197 130.733 51.5311 130.195 51.6752C129.666 51.8289 129.08 51.8961 128.446 51.8961Z" fill="#4C4948"/>
<path d="M138.111 50.1189C139.033 50.1285 139.58 49.7826 140.282 49.2446C140.455 49.8211 140.637 50.3975 140.81 50.9739C140.003 51.5695 139.004 51.8961 138.005 51.8865C136.852 51.8769 135.613 51.4446 134.825 50.5704C134.46 50.1669 134.191 49.6962 134.008 49.1582C133.826 48.6202 133.739 48.0438 133.73 47.4193C133.73 46.8141 133.816 46.2377 133.989 45.6901C134.162 45.1425 134.431 44.6718 134.796 44.2779C135.161 43.884 135.613 43.567 136.151 43.3268C136.689 43.0963 137.332 42.9714 138.072 42.9714C138.524 42.9714 139.062 43.0098 139.523 43.1155C139.974 43.2308 140.349 43.346 140.724 43.6535L140.33 45.1906C140.042 45.0272 139.725 44.9024 139.388 44.8063C138.418 44.5373 137.496 44.6622 136.9 44.9504C136.199 45.2866 135.718 46.084 135.815 47.7172C135.93 49.6385 136.814 50.0997 138.111 50.1189Z" fill="#4C4948"/>
<path d="M144.211 51.8961H141.973L141.963 39.6378H144.201V43.9417C144.326 43.7976 144.49 43.6342 144.701 43.4901C145.767 42.7792 147.352 42.5871 148.419 43.4037C148.938 43.7976 149.322 44.3836 149.543 45.0176C149.802 45.7862 149.783 46.5739 149.783 47.3713C149.783 47.9573 149.783 48.5433 149.783 49.1294C149.783 50.042 149.783 50.9451 149.783 51.8577V51.8865H147.545V46.8717C147.545 46.2665 147.429 45.498 146.805 45.2674C146.584 45.1809 146.344 45.1713 146.113 45.2002C145.729 45.2482 145.364 45.3827 145.047 45.6036C144.711 45.8342 144.384 46.2281 144.221 46.67L144.211 51.8961Z" fill="#4C4948"/>
<path d="M172.129 51.8961H169.487V39.6378H172.129V51.8961Z" fill="#4C4948"/>
<path d="M176.615 47.4481C176.615 46.8429 176.701 46.2665 176.874 45.7189C177.047 45.1713 177.316 44.7006 177.662 44.3067C178.008 43.9128 178.45 43.5958 178.988 43.3556C179.526 43.1154 180.141 43.0002 180.852 43.0002C181.562 43.0002 182.187 43.1154 182.715 43.346C183.244 43.5766 183.686 43.8936 184.041 44.2971C184.396 44.691 184.656 45.1617 184.829 45.7093C185.002 46.2569 185.088 46.8237 185.088 47.4385C185.088 48.0534 185.002 48.6394 184.829 49.1774C184.656 49.7153 184.396 50.1861 184.041 50.5896C183.695 50.9931 183.253 51.3101 182.715 51.5503C182.187 51.7808 181.562 51.9057 180.852 51.9057C180.141 51.9057 179.516 51.7904 178.988 51.5599C178.459 51.3293 178.017 51.0027 177.662 50.5992C177.316 50.1957 177.047 49.725 176.874 49.187C176.701 48.6394 176.615 48.063 176.615 47.4481ZM179.122 47.4385C179.103 48.2839 179.103 49.014 179.353 49.4367C179.651 49.9459 180.179 50.1765 180.861 50.1765C181.534 50.1765 182.062 49.9459 182.369 49.4367C182.61 49.0333 182.61 48.6778 182.61 48.111C182.61 47.6211 182.61 47.1407 182.6 46.6412C182.59 46.2377 182.619 45.7573 182.369 45.4499C182.004 44.9888 181.543 44.7198 180.861 44.7198C180.189 44.7198 179.67 44.96 179.353 45.4499C179.113 45.8246 179.122 46.6027 179.122 47.4385Z" fill="#4C4948"/>
<path d="M206.531 47.4577C206.531 46.8525 206.617 46.2761 206.79 45.7285C206.963 45.1809 207.222 44.7102 207.578 44.3163C207.924 43.9224 208.366 43.6054 208.904 43.3652C209.432 43.1347 210.056 43.0098 210.767 43.0098C211.478 43.0098 212.103 43.125 212.631 43.3556C213.159 43.5862 213.601 43.9032 213.957 44.3067C214.303 44.7006 214.572 45.1713 214.745 45.7189C214.917 46.2665 215.004 46.8429 215.004 47.4481C215.004 48.0726 214.917 48.649 214.745 49.187C214.572 49.725 214.303 50.1957 213.957 50.5992C213.601 51.0027 213.169 51.3197 212.631 51.5503C212.103 51.7808 211.478 51.9057 210.767 51.9057C210.056 51.9057 209.432 51.7904 208.904 51.5599C208.375 51.3293 207.933 51.0027 207.578 50.6088C207.222 50.2053 206.963 49.7346 206.79 49.1966C206.617 48.6586 206.531 48.0822 206.531 47.4577ZM209.038 47.4577C209.019 48.3031 209.019 49.0333 209.269 49.456C209.566 49.9651 210.095 50.1957 210.777 50.1957C211.459 50.1957 211.978 49.9651 212.285 49.456C212.525 49.0525 212.525 48.697 212.525 48.1302C212.525 47.6403 212.525 47.1599 212.516 46.6604C212.506 46.2569 212.535 45.7765 212.285 45.4691C211.92 45.008 211.459 44.739 210.777 44.739C210.095 44.739 209.586 44.9792 209.269 45.4691C209.019 45.8438 209.038 46.6123 209.038 47.4577Z" fill="#4C4948"/>
<path d="M160.014 47.4481C160.014 46.8429 160.101 46.2665 160.274 45.7189C160.447 45.1713 160.706 44.7006 161.061 44.3067C161.407 43.9128 161.849 43.5958 162.387 43.3556C162.915 43.125 163.54 43.0002 164.251 43.0002C164.962 43.0002 165.586 43.1154 166.115 43.346C166.643 43.5766 167.085 43.8936 167.44 44.2971C167.786 44.691 168.055 45.1617 168.228 45.7093C168.401 46.2569 168.487 46.8237 168.487 47.4385C168.487 48.0534 168.401 48.6394 168.228 49.1774C168.055 49.7153 167.796 50.1861 167.44 50.5896C167.094 50.9931 166.653 51.3101 166.115 51.5503C165.586 51.7808 164.962 51.9057 164.251 51.9057C163.54 51.9057 162.915 51.7904 162.387 51.5599C161.859 51.3293 161.417 51.0027 161.061 50.5992C160.715 50.1957 160.447 49.725 160.274 49.187C160.101 48.6394 160.014 48.063 160.014 47.4481ZM162.522 47.4385C162.502 48.2839 162.502 49.014 162.752 49.4367C163.05 49.9459 163.578 50.1765 164.26 50.1765C164.943 50.1765 165.461 49.9459 165.769 49.4367C166.009 49.0333 166.009 48.6778 166.009 48.111C166.009 47.6211 166.009 47.1407 165.999 46.6412C165.99 46.2377 166.018 45.7573 165.769 45.4499C165.404 44.9888 164.943 44.7198 164.26 44.7198C163.578 44.7198 163.069 44.96 162.752 45.4499C162.502 45.8246 162.522 46.6027 162.522 47.4385Z" fill="#4C4948"/>
<path d="M150.657 47.4481C150.657 46.8429 150.744 46.2665 150.917 45.7189C151.089 45.1713 151.358 44.7006 151.704 44.3067C152.06 43.9128 152.492 43.5958 153.03 43.3556C153.558 43.125 154.183 43.0002 154.894 43.0002C155.605 43.0002 156.229 43.1154 156.757 43.346C157.286 43.5766 157.728 43.8936 158.083 44.2971C158.439 44.691 158.698 45.1617 158.871 45.7093C159.044 46.2569 159.13 46.8237 159.13 47.4385C159.13 48.0534 159.044 48.6394 158.871 49.1774C158.698 49.7153 158.429 50.1861 158.083 50.5896C157.728 50.9931 157.295 51.3101 156.757 51.5503C156.229 51.7808 155.605 51.9057 154.894 51.9057C154.183 51.9057 153.558 51.7904 153.03 51.5599C152.502 51.3293 152.06 51.0027 151.704 50.5992C151.358 50.1957 151.089 49.725 150.917 49.187C150.744 48.6394 150.657 48.063 150.657 47.4481ZM153.165 47.4385C153.145 48.2839 153.145 49.014 153.395 49.4367C153.693 49.9459 154.221 50.1765 154.903 50.1765C155.585 50.1765 156.104 49.9459 156.412 49.4367C156.652 49.0333 156.652 48.6778 156.652 48.111C156.652 47.6211 156.652 47.1407 156.642 46.6412C156.633 46.2377 156.661 45.7573 156.412 45.4499C156.047 44.9888 155.585 44.7198 154.903 44.7198C154.231 44.7198 153.712 44.96 153.395 45.4499C153.155 45.8246 153.165 46.6027 153.165 47.4385Z" fill="#4C4948"/>
<path d="M190.593 41.4919C190.468 41.4823 190.343 41.4919 190.218 41.5016C190.007 41.5208 189.786 41.5976 189.623 41.7417C189.325 41.9915 189.344 42.3758 189.344 42.7312V43.2692H191.679V45.2098H189.354L189.459 51.9154H186.817V45.2194L185.674 45.2098V43.2788H186.817V42.7216C186.827 41.5688 187.375 40.5601 188.403 40.0317C189.267 39.5898 190.343 39.5514 191.275 39.7819L192.168 40.147L191.621 41.8282C191.582 41.7994 191.342 41.6649 191.179 41.6072C190.977 41.5304 190.804 41.5016 190.593 41.4919Z" fill="#4C4948"/>
<path d="M259.378 51.8962H257.159V43.5094H259.378L259.387 44.6046C259.512 44.4701 259.676 44.3164 259.868 44.1627C260.06 44.009 260.271 43.8649 260.502 43.74C260.732 43.6151 260.992 43.5094 261.27 43.423C261.549 43.3461 261.847 43.2981 262.164 43.2981C262.98 43.2981 263.643 43.5863 264.133 44.1627C264.623 44.7391 264.873 45.5557 264.873 46.6124V51.8962H262.654V46.6797C262.654 46.1513 262.558 45.7478 262.375 45.4692C262.193 45.2002 261.876 45.0657 261.434 45.0657C261.03 45.0657 260.636 45.1714 260.281 45.4116C259.925 45.6517 259.608 45.9976 259.416 46.4587L259.378 51.8962Z" fill="#4C4948"/>
<path d="M202.323 51.9155C201.41 51.9155 200.603 51.7618 199.892 51.4543C199.191 51.1469 198.595 50.7146 198.115 50.167C197.635 49.6194 197.27 48.9662 197.029 48.2168C196.78 47.4675 196.664 46.6605 196.664 45.7959C196.664 44.9313 196.789 44.1243 197.029 43.375C197.279 42.6256 197.635 41.982 198.115 41.4248C198.595 40.8772 199.181 40.4449 199.892 40.1375C200.603 39.83 201.41 39.6763 202.313 39.6763C202.957 39.6763 203.543 39.7436 204.081 39.8685C204.619 39.9934 205.138 40.1951 205.637 40.4641L204.869 42.4431C203.677 41.9051 202.467 41.5112 201.18 41.982C200.132 42.3663 199.556 43.1636 199.297 44.23C198.835 46.1706 199.345 48.8605 201.564 49.4465C201.814 49.5138 202.063 49.5426 202.313 49.533C202.813 49.5234 203.082 49.4753 203.562 49.36C204.052 49.2448 204.532 49.0526 205.003 48.7932L205.695 51.0797C205.224 51.3487 204.705 51.56 204.129 51.7041C203.581 51.8386 202.966 51.9155 202.323 51.9155Z" fill="#4C4948"/>
<path d="M222.929 51.9154H220.739V46.4779C220.739 46.036 220.681 45.6805 220.576 45.4115C220.461 45.1521 220.22 45.0176 219.846 45.0176C219.461 45.0176 219.106 45.1233 218.799 45.3443C218.482 45.5652 218.27 45.7189 218.059 46.0264V51.9058H215.83V43.4325H218.068V44.4893C218.193 44.3452 218.299 44.2491 218.472 44.0954C218.645 43.9417 218.837 43.7976 219.048 43.6631C219.269 43.5382 219.5 43.4325 219.759 43.346C220.019 43.2596 220.297 43.2212 220.605 43.2212C221.152 43.2212 221.604 43.3557 221.969 43.6246C222.334 43.8936 222.584 44.2779 222.718 44.7679C223.054 44.3836 223.458 44.0281 223.929 43.7111C224.399 43.3845 224.928 43.2308 225.523 43.2308C226.292 43.2308 226.878 43.4902 227.272 44.0185C227.666 44.5469 227.867 45.2962 227.867 46.2857V51.9154H225.677V46.4779C225.677 46.036 225.619 45.6805 225.514 45.4115C225.398 45.1521 225.158 45.0176 224.784 45.0176C224.399 45.0176 224.044 45.1233 223.736 45.3443C223.419 45.5556 223.16 45.8246 222.949 46.1416" fill="#4C4948"/>
<path d="M229.011 43.4517H231.249V44.5565C231.364 44.4028 231.518 44.2491 231.701 44.0954C231.883 43.9417 232.085 43.8072 232.315 43.6727C232.546 43.5478 232.786 43.4421 233.055 43.3557C233.324 43.2788 233.612 43.2308 233.91 43.2308C234.467 43.2308 234.957 43.3461 235.37 43.5862C235.783 43.8264 236.129 44.1434 236.408 44.5373C236.677 44.9312 236.888 45.3923 237.023 45.9111C237.157 46.4299 237.224 46.9678 237.224 47.5346C237.224 48.2744 237.128 48.9276 236.946 49.4944C236.763 50.0612 236.504 50.5416 236.187 50.9259C235.87 51.3101 235.495 51.608 235.073 51.8097C234.65 52.0114 234.208 52.1171 233.737 52.1171C233.084 52.1171 232.565 51.9826 232.191 51.7136C231.816 51.4446 231.499 51.1372 231.249 50.801V55.2586H229.011V43.4517ZM231.259 47.9381C231.259 48.9949 231.72 50.1957 232.911 50.3302C233.487 50.3975 234.102 50.1381 234.458 49.677C234.736 49.3119 234.861 48.8508 234.928 48.3993C235.015 47.8229 235.025 47.2272 234.909 46.6604C234.794 46.132 234.554 45.6037 234.112 45.2962C233.699 45.008 233.142 44.9408 232.652 45.0945C232.046 45.277 231.259 45.9015 231.259 46.6028V47.9381Z" fill="#4C4948"/>
<path d="M243.421 43.4324C244.17 43.4324 244.92 43.4324 245.659 43.4324C245.659 46.2568 245.659 49.0813 245.659 51.9057C244.91 51.9057 244.17 51.9057 243.421 51.9057C243.421 51.5406 243.421 51.166 243.411 50.8009C242.729 51.8384 241.355 52.3092 240.145 52.0402C239.674 51.9345 239.223 51.7328 238.877 51.3965C238.473 51.0026 238.243 50.455 238.128 49.9075C238.012 49.3503 238.022 48.7835 238.022 48.2166C238.031 47.0446 238.031 45.8726 238.031 44.7005C238.031 44.4123 238.031 44.1241 238.031 43.8359L238.051 43.4516L238.502 43.442C239.088 43.442 239.684 43.442 240.27 43.442C240.27 45.1425 240.27 46.8333 240.27 48.5241C240.27 49.0332 240.279 49.6577 240.683 50.042C241.096 50.4166 241.74 50.3974 242.201 50.1476C242.643 49.9075 243.229 49.3599 243.382 48.8603C243.411 48.7642 243.411 48.6682 243.411 48.5721C243.431 46.8525 243.421 45.1425 243.421 43.4324Z" fill="#4C4948"/>
<path d="M250.078 49.1102C250.078 49.4656 250.146 49.7154 250.29 49.8691C250.434 50.0228 250.645 50.1093 250.943 50.1093C251.327 50.1093 251.712 49.9748 252.096 49.7058L252.557 51.339C252.269 51.5311 251.961 51.6656 251.635 51.7617C251.318 51.8577 250.953 51.9058 250.559 51.9058C249.608 51.9058 248.935 51.6752 248.512 51.2237C248.099 50.7625 247.888 50.0612 247.888 49.1006V45.1137H246.591V43.2308H247.83V40.8098H250.069V43.2308H252.471V45.1137H250.069L250.078 49.1102Z" fill="#4C4948"/>
<path d="M254.632 39.9837C255.065 39.9837 255.391 40.1086 255.622 40.3584C255.852 40.6081 255.968 40.8964 255.968 41.2326C255.968 41.5688 255.852 41.857 255.622 42.1068C255.391 42.3566 255.055 42.4815 254.632 42.4815C254.2 42.4815 253.873 42.3566 253.643 42.1068C253.412 41.857 253.297 41.5688 253.297 41.2326C253.297 40.8964 253.412 40.6081 253.643 40.3584C253.873 40.1086 254.21 39.9837 254.632 39.9837ZM255.747 51.8962H253.527V43.5094H255.747V51.8962Z" fill="#4C4948"/>
<path d="M271.761 50.801C271.521 51.1372 271.213 51.435 270.829 51.704C270.455 51.973 269.974 52.1075 269.379 52.1075C268.879 52.1075 268.418 52.0114 267.986 51.8097C267.553 51.6079 267.169 51.3293 266.852 50.9547C266.525 50.58 266.276 50.1285 266.083 49.6001C265.891 49.0717 265.805 48.4569 265.805 47.7748C265.805 47.208 265.882 46.67 266.026 46.1512C266.179 45.6325 266.4 45.181 266.689 44.7871C266.986 44.3932 267.352 44.0762 267.784 43.8456C268.216 43.615 268.716 43.4998 269.282 43.4998C269.907 43.4998 270.406 43.6343 270.791 43.9032C271.175 44.1722 271.482 44.4701 271.713 44.7967V43.7015H273.932V51.4158C273.932 52.1651 273.817 52.8088 273.606 53.3468C273.385 53.8752 273.087 54.3171 272.703 54.6533C272.318 54.9896 271.876 55.2393 271.358 55.393C270.839 55.5468 270.291 55.6236 269.705 55.6236C269.042 55.6236 268.427 55.5468 267.841 55.3834C267.255 55.2201 266.775 55.0088 266.391 54.759L266.948 53.0394C267.342 53.2987 267.765 53.4813 268.226 53.5966C268.687 53.7118 269.11 53.7695 269.523 53.7695C269.849 53.7695 270.147 53.7311 270.416 53.6542C270.685 53.5773 270.925 53.4525 271.117 53.2699C271.31 53.0874 271.473 52.8568 271.588 52.5782C271.703 52.29 271.761 51.9442 271.761 51.5215V50.801ZM271.636 46.5836L271.627 46.5643C271.55 46.1897 271.319 45.8534 271.021 45.6325C270.253 45.0561 269.196 45.2194 268.581 45.9303C268.207 46.3626 268.024 46.9774 268.024 47.794C268.024 48.2648 268.072 48.6682 268.168 48.9949C268.264 49.3215 268.399 49.5809 268.572 49.773C268.745 49.9652 268.946 50.1189 269.177 50.2053C269.945 50.5128 270.887 50.2822 271.358 49.5617C271.579 49.2158 271.675 48.8027 271.694 48.3993C271.723 47.9958 271.684 47.5827 271.665 47.1792C271.675 46.9774 271.675 46.7757 271.636 46.5836Z" fill="#4C4948"/>
<path d="M68.826 51.8962H71.1797L74.6189 44.6622V51.8962H76.9726V39.6378H74.5997L69.998 48.9757L65.4059 39.6378H63.0331V51.8962H65.3867V44.691L68.826 51.8962Z" fill="#4C4948"/>
<path d="M100.25 48.3512L97.6944 39.657L95.187 39.6378L98.9529 51.9153H101.105L103.776 42.443H103.852L106.514 51.9153H108.646L112.441 39.6378H109.943L107.292 48.3512L104.861 39.6378H102.767L100.25 48.3512Z" fill="#4C4948"/>
<path d="M117.831 43.4518C118.58 43.4518 119.329 43.4518 120.069 43.4518C120.069 46.2762 120.069 49.1006 120.069 51.925C119.32 51.925 118.58 51.925 117.831 51.925C117.831 51.5504 117.831 51.1853 117.821 50.8202C117.139 51.8578 115.765 52.3285 114.555 52.0595C114.084 51.9538 113.632 51.7425 113.287 51.4159C112.883 51.022 112.652 50.4744 112.537 49.9268C112.422 49.3696 112.432 48.8028 112.432 48.236C112.432 47.064 112.441 45.8919 112.441 44.7199C112.441 44.4317 112.441 44.1435 112.441 43.8553L112.46 43.471L112.912 43.4614C113.498 43.4614 114.093 43.4614 114.68 43.4614C114.68 45.1618 114.68 46.8526 114.67 48.5434C114.67 49.0622 114.68 49.6866 115.083 50.0613C115.496 50.436 116.14 50.4168 116.601 50.167C117.043 49.9268 117.629 49.3792 117.783 48.8797C117.811 48.7836 117.811 48.6875 117.811 48.5818C117.831 46.8718 117.831 45.1618 117.831 43.4518Z" fill="#4C4948"/>
<path d="M79.4128 39.9741C79.8451 39.9741 80.1718 40.099 80.4023 40.3488C80.6329 40.5985 80.7482 40.8867 80.7482 41.223C80.7482 41.5592 80.6329 41.8474 80.4023 42.0972C80.1718 42.347 79.8451 42.4719 79.4128 42.4719C78.9805 42.4719 78.6539 42.347 78.4233 42.0972C78.1927 41.8474 78.0775 41.5592 78.0775 41.223C78.0775 40.8867 78.1927 40.5985 78.4233 40.3488C78.6539 40.099 78.9805 39.9741 79.4128 39.9741ZM80.5272 51.8962H78.308V43.4998H80.5272V51.8962Z" fill="#4C4948"/>
<path d="M82.8712 39.9741C83.3035 39.9741 83.6302 40.099 83.8607 40.3488C84.0913 40.5985 84.2066 40.8867 84.2066 41.223C84.2066 41.5592 84.0913 41.8474 83.8607 42.0972C83.6302 42.347 83.3035 42.4719 82.8712 42.4719C82.4389 42.4719 82.1123 42.347 81.8817 42.0972C81.6511 41.8474 81.5359 41.5592 81.5359 41.223C81.5359 40.8867 81.6511 40.5985 81.8817 40.3488C82.1123 40.099 82.4485 39.9741 82.8712 39.9741ZM83.9856 51.8962H81.7664V43.4998H83.9856V51.8962Z" fill="#4C4948"/>
<path d="M87.4632 51.8769C86.7139 51.8769 85.9646 51.8769 85.2248 51.8769C85.2248 49.0525 85.2248 46.2281 85.2152 43.4037C85.9646 43.4037 86.7043 43.4037 87.4536 43.4037C87.4536 43.7688 87.4536 44.1434 87.4632 44.5085C88.1453 43.4709 89.5191 43.0002 90.7296 43.2692C91.2003 43.3749 91.6518 43.5766 91.9977 43.9129C92.4012 44.3067 92.6317 44.8543 92.747 45.4019C92.8623 45.9591 92.8527 46.5259 92.8527 47.0927C92.8527 48.2648 92.8431 49.4368 92.8431 50.6088C92.8431 50.897 92.8431 51.1852 92.8431 51.4735L92.8239 51.8577L92.3724 51.8769C91.7863 51.8769 91.1907 51.8769 90.6047 51.8769C90.6047 50.1861 90.6047 48.4857 90.6047 46.7949C90.6047 46.2761 90.5951 45.6517 90.1916 45.277C89.7785 44.9024 89.1348 44.9216 88.6737 45.1714C88.2318 45.4115 87.6458 45.9591 87.4921 46.4587C87.4632 46.5547 87.4632 46.6508 87.4632 46.7469C87.4632 48.4569 87.4632 50.1669 87.4632 51.8769Z" fill="#4C4948"/>
</svg>
